<?xml version="1.0" encoding="UTF-8"?>
<svg version="1.1" xmlns="http://www.w3.org/2000/svg" width="2048" height="2048">
<path d="M0 0 C43.56 0 87.12 0 132 0 C132 132.33 132 264.66 132 401 C109.89 401 87.78 401 65 401 C56.85766518 392.85766518 49.76611237 384.3172695 43 375 C42.42636719 374.21109375 41.85273437 373.4221875 41.26171875 372.609375 C35.55432504 364.59995376 30.26590142 356.30348308 25 348 C24.39188477 347.04601318 24.39188477 347.04601318 23.77148438 346.07275391 C17.76690101 336.59409017 12.81876065 326.76482868 8.17260742 316.55712891 C7.32316208 314.70472614 6.45948833 312.8588264 5.5871582 311.01708984 C1.85783286 303.09985159 -1.42139076 295.08947822 -4.4375 286.875 C-4.67300568 286.23403381 -4.90851135 285.59306763 -5.15115356 284.93267822 C-10.04767113 271.52323252 -13.83162551 257.92178302 -17 244 C-17.20173828 243.11731445 -17.40347656 242.23462891 -17.61132812 241.32519531 C-19.91233417 231.0428251 -21.59402415 220.66272684 -23.1875 210.25 C-23.35467529 209.17363281 -23.52185059 208.09726562 -23.6940918 206.98828125 C-26.08259783 190.74496358 -26.18643979 174.53492657 -26.18530273 158.14990234 C-26.18747431 154.66621392 -26.20565251 151.1828509 -26.22460938 147.69921875 C-26.27851598 126.71695155 -25.18308299 105.84451829 -21.75 85.125 C-21.64328979 84.4671048 -21.53657959 83.80920959 -21.42663574 83.13137817 C-18.19696155 63.25234972 -13.97022191 43.71999162 -8.375 24.375 C-8.18699829 23.722966 -7.99899658 23.07093201 -7.80529785 22.3991394 C-5.56688679 14.68890731 -2.99882582 7.49706454 0 0 Z " fill="#E72828" transform="translate(1094,559)"/>
<path d="M0 0 C47.85 0 95.7 0 145 0 C143.97238895 4.1104442 142.85496595 5.77424404 140.3125 9.0625 C136.98509784 13.53443411 134.19982166 18.0114862 131.62109375 22.9453125 C130.42319213 25.20256327 129.19581107 27.41106161 127.91015625 29.6171875 C122.99237201 38.08144053 118.76701943 46.65769135 114.8984375 55.6484375 C113.73347854 58.35327116 112.5267676 61.02161668 111.2265625 63.6640625 C106.24245859 73.83524288 102.57067495 84.33421153 98.98193359 95.06884766 C98.03772408 97.88739054 97.07778212 100.70006483 96.11328125 103.51171875 C81.90163169 145.16747336 74.57602701 188.22234309 71 232 C70.87007156 233.58426285 70.87007156 233.58426285 70.73751831 235.20053101 C70.12440874 243.14581847 69.82852561 251.04021572 69.796875 259.0078125 C69.78995132 260.20058807 69.78302765 261.39336365 69.77589417 262.62228394 C69.75870256 266.45655654 69.75230485 270.29069065 69.75 274.125 C69.74866058 275.43791016 69.74732117 276.75082031 69.74594116 278.10351562 C69.74148729 297.95446443 70.38772873 317.5430551 72.58544922 337.27050781 C72.98705991 340.88358491 73.34505946 344.49844329 73.69140625 348.1171875 C75.03373825 361.66025515 77.0319607 375.04445649 79.37451172 388.44482422 C79.58479004 389.64896973 79.79506836 390.85311523 80.01171875 392.09375 C80.20209717 393.16302734 80.39247559 394.23230469 80.58862305 395.33398438 C81 398 81 398 81 401 C54.27 401 27.54 401 0 401 C0 268.67 0 136.34 0 0 Z " fill="#9C9DA0" transform="translate(879,559)"/>
<path d="M0 0 C10.89 0 21.78 0 33 0 C34.8414504 5.52435119 36.60787495 10.95870479 38.125 16.5625 C39.72749542 22.41223918 41.35135448 28.25512116 43.0078125 34.08984375 C46.99886916 48.15452185 50.90113218 62.23700002 54.625 76.375 C54.81348511 77.09057068 55.00197021 77.80614136 55.19616699 78.543396 C55.94193072 81.37600104 56.68715974 84.2087461 57.4317627 87.04165649 C63.05421954 108.42759668 68.97457697 129.72484636 75 151 C77.80304993 141.26972134 80.52733021 131.52042903 83.1875 121.75 C83.37975159 121.04480225 83.57200317 120.33960449 83.77008057 119.61303711 C87.06310287 107.5279715 90.28589665 95.42509247 93.47875977 83.31323242 C96.72350524 71.00992695 100.02474687 58.72210599 103.33215332 46.43551636 C106.6229668 34.20542466 109.86077491 21.96411345 112.98291016 9.68969727 C113.23862793 8.68994873 113.4943457 7.6902002 113.7578125 6.66015625 C113.9758252 5.80043213 114.19383789 4.94070801 114.41845703 4.05493164 C115 2 115 2 116 0 C128.21 0 140.42 0 153 0 C157.1854163 14.12578 161.18564277 28.27359589 164.94946289 42.51708984 C167.22233537 51.11099762 169.55683038 59.68536711 171.9375 68.25 C174.89383633 78.8961653 177.7507415 89.56495983 180.5625 100.25 C183.27179606 110.53826272 186.01444781 120.81496058 188.875 131.0625 C189.14900635 132.04831055 189.4230127 133.03412109 189.70532227 134.04980469 C191.3107705 139.75828647 193.06654228 145.39400933 195 151 C195.33040283 149.7457019 195.33040283 149.7457019 195.66748047 148.46606445 C200.02283206 131.94371909 204.40804464 115.43005409 208.875 98.9375 C212.45087978 85.7327394 216.01583863 72.52514205 219.5625 59.3125 C219.79119781 58.46110443 220.01989563 57.60970886 220.25552368 56.73251343 C222.73412451 47.50321342 225.19796772 38.27034971 227.625 29.02734375 C227.83309799 28.2360054 228.04119598 27.44466705 228.25559998 26.62934875 C229.23578006 22.90149481 230.21290371 19.17289985 231.18383789 15.44262695 C231.52998431 14.12317648 231.87625004 12.80375729 232.22265625 11.484375 C232.51922119 10.34709961 232.81578613 9.20982422 233.12133789 8.03808594 C234 5 234 5 236 0 C246.89 0 257.78 0 269 0 C266.75166381 11.24168093 266.75166381 11.24168093 265.4765625 15.44140625 C265.18402588 16.4156958 264.89148926 17.38998535 264.59008789 18.39379883 C264.27160889 19.43947021 263.95312988 20.4851416 263.625 21.5625 C262.90665883 23.95285674 262.18927501 26.34350132 261.47265625 28.734375 C261.27959396 29.37695755 261.08653168 30.0195401 260.88761902 30.68159485 C258.4937661 38.66100408 256.16903883 46.66061861 253.83670044 54.65817261 C250.00690199 67.78854353 246.14366594 80.9071385 242.1875 94 C239.19485917 103.90459459 236.34442223 113.83857773 233.5925293 123.8125 C231.22461624 132.33616744 228.6294805 140.78036649 225.9934082 149.22436523 C223.23777389 158.10004768 220.70165469 167.02788179 218.2578125 175.99414062 C217.9896875 176.97189453 217.7215625 177.94964844 217.4453125 178.95703125 C217.21344238 179.81272705 216.98157227 180.66842285 216.74267578 181.55004883 C215.97498979 184.08250409 214.98279485 186.54301288 214 189 C201.46 189 188.92 189 176 189 C170.2505717 170.60182945 170.2505717 170.60182945 168.3515625 163.41796875 C168.13348434 162.60385025 167.91540619 161.78973175 167.6907196 160.95094299 C166.99879187 158.36401013 166.31175873 155.77580934 165.625 153.1875 C165.13846697 151.3642039 164.65172943 149.54096236 164.16479492 147.71777344 C161.21939905 136.67267709 158.33283066 125.61349077 155.48828125 114.54199219 C153.14419394 105.45865388 150.65046721 96.41969486 148.13574219 87.38232422 C144.95154036 75.90715266 141.90629488 64.39668166 138.88134766 52.87866211 C138.69617081 52.17475845 138.51099396 51.4708548 138.32020569 50.74562073 C137.81676832 48.83115171 137.31470998 46.91632021 136.81274414 45.00146484 C136.26654581 42.98435393 135.66083803 40.9825141 135 39 C132.27937903 45.6588038 130.50107741 52.44845769 128.75561523 59.41992188 C127.88448721 62.89602135 126.99757138 66.36807209 126.109375 69.83984375 C125.93083984 70.53810272 125.75230469 71.23636169 125.56835938 71.95578003 C123.97313914 78.16427601 122.25704457 84.33540228 120.5 90.5 C117.8793949 99.71506022 115.43270719 108.96792024 113.0625 118.25 C109.2374637 133.2227364 105.1596038 148.11638177 101 163 C100.25422889 165.67261127 99.50881156 168.34531908 98.7644043 171.01831055 C98.35962541 172.47066151 97.9536845 173.92268953 97.54614258 175.37426758 C96.28111057 179.9014184 95.14119938 184.43520247 94 189 C81.46 189 68.92 189 56 189 C52.48368351 178.16974521 49.02832332 167.38475334 46.125 156.375 C43.87796797 147.88289022 41.29337422 139.53602576 38.5625 131.1875 C35.67610651 122.35983665 32.9508772 113.52107659 30.5 104.5625 C28.04362508 95.58934314 25.40494743 86.6908381 22.625 77.8125 C16.3863737 57.88576528 10.39943514 37.88542586 4.54833984 17.84173584 C4.14337429 16.45498779 3.73762138 15.06846941 3.33105469 13.68218994 C2.76871271 11.76289487 2.21042733 9.84241263 1.65234375 7.921875 C1.33257568 6.82456055 1.01280762 5.72724609 0.68334961 4.59667969 C0 2 0 2 0 0 Z " fill="#E72828" transform="translate(995,1215)"/>
<path d="M0 0 C35.330625 -0.061875 35.330625 -0.061875 71.375 -0.125 C78.80177246 -0.14320801 86.22854492 -0.16141602 93.88037109 -0.18017578 C102.97583008 -0.18920898 102.97583008 -0.18920898 107.23892212 -0.19088745 C110.20518 -0.1927446 113.17136571 -0.20021506 116.13760376 -0.21115112 C119.93034497 -0.22494748 123.72298238 -0.22896791 127.51574636 -0.22614455 C129.55216986 -0.22701087 131.5885821 -0.23769709 133.6249752 -0.2488575 C149.89932168 -0.21219332 163.99109846 3.44977178 176 15 C187.50441247 27.44813381 191.59314487 42.11865343 191.4375 58.8125 C191.43065186 59.94743896 191.42380371 61.08237793 191.41674805 62.25170898 C191.13987345 76.77881097 187.82954916 90.24081759 177.8515625 101.2421875 C171.07354085 107.67701818 163.78483826 111.9717793 155 115 C153.33161712 115.66236002 151.66473314 116.3285197 150 117 C150.36424072 117.60658447 150.72848145 118.21316895 151.10375977 118.83813477 C153.72865999 123.2110076 156.35085978 127.58543544 158.96484375 131.96484375 C159.45533203 132.78533203 159.94582031 133.60582031 160.45117188 134.45117188 C161.43930874 136.10412619 162.42629485 137.75776898 163.41210938 139.41210938 C166.56818456 144.68602269 169.82132592 149.88795383 173.13256836 155.06567383 C176.21339889 159.9066337 179.23911607 164.78142182 182.25415039 169.66357422 C182.96699923 170.81630095 183.68155268 171.96797509 184.39770508 173.11865234 C185.45253505 174.81371908 186.50173139 176.51228748 187.55078125 178.2109375 C188.16606689 179.20399902 188.78135254 180.19706055 189.4152832 181.22021484 C190.86759655 183.76774832 191.99158269 186.25125466 193 189 C162.74824752 191.51493386 162.74824752 191.51493386 155.52197266 187.6875 C151.97629845 184.21123048 150.4044778 179.89535344 148.84716797 175.2578125 C147.43819135 171.50270708 145.20880936 168.32581809 143 165 C142.16257404 163.66923331 141.32923311 162.33588722 140.5 161 C139.88125 160.01 139.88125 160.01 139.25 159 C135.5 153 135.5 153 134.24853516 150.99755859 C133.42020181 149.67229003 132.59175243 148.347094 131.76318359 147.02197266 C129.60236374 143.56585236 127.44393705 140.1082683 125.2890625 136.6484375 C124.62003906 135.57529297 124.62003906 135.57529297 123.9375 134.48046875 C123.09039067 133.12156421 122.2439848 131.76222078 121.3984375 130.40234375 C121.01171875 129.78230469 120.625 129.16226562 120.2265625 128.5234375 C119.89221191 127.98638184 119.55786133 127.44932617 119.21337891 126.89599609 C118.81296387 126.27031738 118.41254883 125.64463867 118 125 C117.4852713 123.98683716 116.9705426 122.97367432 116.44021606 121.92980957 C114.21884689 118.64280252 114.21884689 118.64280252 110.29205322 118.24050903 C108.77615527 118.20546249 107.25928121 118.20330964 105.74316406 118.22705078 C104.49870766 118.21110619 104.49870766 118.21110619 103.22911072 118.19483948 C100.4906668 118.16676528 97.75414725 118.1808529 95.015625 118.1953125 C93.11560379 118.18406385 91.21559647 118.17018385 89.31561279 118.15377808 C84.31776188 118.1176958 79.32052213 118.11737214 74.3225708 118.12445068 C68.32439679 118.12552304 62.32639906 118.0822622 56.32835388 118.04641724 C47.21858519 117.99694759 38.11041662 118.00385708 29 118 C29 141.43 29 164.86 29 189 C19.43 189 9.86 189 0 189 C0 126.63 0 64.26 0 0 Z M30 30 C30 48.81 30 67.62 30 87 C49.66207364 87.14551049 49.66207364 87.14551049 69.32421875 87.24414062 C77.34767524 87.27399107 85.37080715 87.30924525 93.39404297 87.37719727 C99.86500809 87.43165742 106.33566613 87.46145055 112.8068428 87.47438622 C115.27152971 87.48360081 117.73620044 87.50159477 120.20075607 87.52865028 C123.6620344 87.56512496 127.12205548 87.56993741 130.58349609 87.56762695 C131.59482605 87.58560333 132.60615601 87.60357971 133.64813232 87.62210083 C141.42983922 87.56616067 148.0742918 85.59275025 153.91829491 80.24440479 C160.25742643 73.48717365 161.60382144 66.48047549 161.54858398 57.56689453 C161.25734601 49.32851151 158.62264703 42.78943556 152.87890625 36.78125 C145.08870665 30.19265831 136.99938254 29.70096695 127.17773438 29.77294922 C126.12318054 29.77265717 125.06862671 29.77236511 123.9821167 29.77206421 C120.51924218 29.77345024 117.05658663 29.78897729 113.59375 29.8046875 C111.1837984 29.80842021 108.77384527 29.81126596 106.3638916 29.81326294 C100.03788015 29.82087906 93.71196132 29.84051022 87.38598633 29.8626709 C79.78676264 29.88678102 72.18750787 29.89591993 64.58825684 29.90757751 C53.05877357 29.92693573 41.52949335 29.96527261 30 30 Z " fill="#E72828" transform="translate(1516,1215)"/>
<path d="M0 0 C1.2271875 0.01675781 2.454375 0.03351563 3.71875 0.05078125 C30.81277004 1.0304204 63.331955 9.53347967 84 28 C82.48722749 32.8281901 79.72346422 35.97238297 76.4375 39.6875 C72.85080297 43.58605233 72.85080297 43.58605233 70 48 C69.34 48 68.68 48 68 48 C67.67 48.99 67.34 49.98 67 51 C62.85271895 50.08240982 59.36310531 48.20690839 55.625 46.25 C48.27607238 42.4977122 40.87431092 39.50220131 33 37 C31.27136719 36.44505859 31.27136719 36.44505859 29.5078125 35.87890625 C21.40154766 33.41452952 13.42639119 31.8531941 5 31 C4.32485352 30.93151855 3.64970703 30.86303711 2.95410156 30.79248047 C-9.22281668 29.63609121 -20.89758332 30.35861325 -33 32 C-34.55074219 32.20109375 -34.55074219 32.20109375 -36.1328125 32.40625 C-44.63378771 33.79198891 -52.37641366 37.35394341 -58 44 C-58.5775 44.598125 -59.155 45.19625 -59.75 45.8125 C-61.61586133 49.07775733 -62.11771833 52.29533506 -62 56 C-59.8283923 62.85770853 -56.46322779 66.66139644 -50.1484375 70.05859375 C-43.17528843 73.11410089 -35.63462647 74.14679998 -28.125 75 C-27.38593414 75.08537018 -26.64686829 75.17074036 -25.88540649 75.25869751 C-18.77826842 76.05983769 -11.65891472 76.64461533 -4.52941895 77.20355225 C47.38950606 81.33523847 47.38950606 81.33523847 62 88 C63.12792969 88.51433594 64.25585938 89.02867188 65.41796875 89.55859375 C76.16306375 94.9125939 87.17724168 102.79361947 91.1875 114.5625 C91.51105469 115.49191406 91.83460938 116.42132812 92.16796875 117.37890625 C96.24317079 130.21674929 95.91329973 146.66149727 90.5390625 159.03125 C81.36275457 176.73174245 68.18201338 186.15152429 49.75 192.8125 C41.00027205 195.53933022 32.07642283 196.86571217 23 198 C21.98808594 198.13277344 20.97617188 198.26554687 19.93359375 198.40234375 C-19.30542788 202.57184678 -64.43994421 195.60036712 -95.9375 170.453125 C-97.3090565 169.32286085 -98.65810747 168.16532773 -100 167 C-98.69150423 163.4306223 -97.12607526 160.47581434 -94.9609375 157.35546875 C-94.38085938 156.51435547 -93.80078125 155.67324219 -93.203125 154.80664062 C-92.29820312 153.51016602 -92.29820312 153.51016602 -91.375 152.1875 C-90.76398438 151.30384766 -90.15296875 150.42019531 -89.5234375 149.50976562 C-88.01996525 147.33677839 -86.51205266 145.16702124 -85 143 C-81.26165554 143.67576726 -78.75919618 144.55296469 -75.5625 146.625 C-43.16375131 166.59944978 -4.33007471 173.95991816 33 166 C44.15079874 163.16640404 53.22816403 157.31127445 60 148 C62.08537709 141.74386873 61.96426534 133.88719464 60.375 127.48046875 C56.879318 120.5573798 49.00571851 117.37128682 42 115 C25.81129307 110.40830645 8.3964108 109.27669475 -8.35546875 108.8359375 C-64.28693962 107.34166444 -64.28693962 107.34166444 -81.21484375 91.89453125 C-81.80394531 91.26933594 -82.39304688 90.64414063 -83 90 C-83.64066406 89.34386719 -84.28132812 88.68773437 -84.94140625 88.01171875 C-93.92558953 77.75211905 -94.91239308 65.19667066 -94.44140625 52.109375 C-93.50705131 38.04460031 -86.62428767 28.11713347 -76.5625 18.6875 C-72.34488033 15.09203349 -67.97119271 12.42007097 -63 10 C-62.33871094 9.65324219 -61.67742187 9.30648438 -60.99609375 8.94921875 C-42.40452993 -0.18781167 -20.27730338 -0.41911749 0 0 Z " fill="#E72828" transform="translate(226,1210)"/>
<path d="M0 0 C2.140625 2.0546875 2.140625 2.0546875 4.25 4.875 C7.28943718 8.81613688 10.37362534 12.59226078 13.75 16.25 C17.16629301 19.99535801 20.16831575 23.79814596 23 28 C20.57883997 30.42116003 13.94561859 29.85267462 10.49609375 30.16210938 C-8.96437388 32.03506518 -25.71717343 40.07603502 -38.71875 54.96875 C-52.33692587 72.47783326 -54.43130945 90.88371182 -52.7265625 112.4609375 C-51.26717277 121.85059598 -47.26749448 130.67448497 -41.91796875 138.4765625 C-41 140 -41 140 -41 142 C-40.34 142 -39.68 142 -39 142 C-38.1096474 143.07520089 -37.2645995 144.18791512 -36.4375 145.3125 C-25.63220771 157.9112018 -8.89092541 165.23415005 7.39794922 166.83007812 C12.86588061 167.18715077 18.33490993 167.18457237 23.8125 167.1875 C25.00681641 167.19974609 26.20113281 167.21199219 27.43164062 167.22460938 C48.89242996 167.25965694 67.63225759 161.1469907 83.12890625 145.90625 C97.26080699 130.67490347 101.77476928 112.89377211 101.37890625 92.6015625 C100.59461455 76.03304887 92.37162537 60.80209699 81 49 C66.58074641 36.48599313 49.32263177 31.62606806 31 28 C32.26728765 23.61569676 33.86985641 20.44028868 36.625 16.8125 C37.32882812 15.8740625 38.03265625 14.935625 38.7578125 13.96875 C39.49773437 12.9890625 40.23765625 12.009375 41 11 C42.50393795 8.94036972 44.00411785 6.87798852 45.5 4.8125 C46.66666667 3.20833333 47.83333333 1.60416667 49 0 C67.07881893 2.73426833 84.78653365 11.66731997 99 23 C99.85464844 23.66128906 100.70929688 24.32257813 101.58984375 25.00390625 C105.17974845 27.97706882 108.02056202 31.43108182 111 35 C111.85271484 35.96873047 111.85271484 35.96873047 112.72265625 36.95703125 C130.12201409 57.68565118 134.65319551 85.55379616 132.72265625 111.765625 C130.48289887 130.45160089 123.3950661 147.78213006 111 162 C110.04012817 163.20711155 109.08154569 164.41525103 108.125 165.625 C107.42375 166.40875 106.7225 167.1925 106 168 C105.34 168 104.68 168 104 168 C103.79632812 168.56203125 103.59265625 169.1240625 103.3828125 169.703125 C101.48172253 172.86086766 98.84311138 174.67398609 95.875 176.75 C95.25681396 177.18465576 94.63862793 177.61931152 94.00170898 178.06713867 C66.77715234 196.6994876 32.38357402 203.31863893 0.03686523 197.27392578 C-1.98040217 196.86959231 -3.99036647 196.4405316 -6 196 C-7.09441406 195.77183594 -8.18882812 195.54367187 -9.31640625 195.30859375 C-21.98223627 192.41873683 -32.48189115 187.58937171 -43 180 C-43.97324219 179.33613281 -44.94648438 178.67226562 -45.94921875 177.98828125 C-51.17644339 174.35846223 -55.53606338 170.69406893 -59.5625 165.7578125 C-61.08800704 163.8250324 -61.08800704 163.8250324 -63.4375 161.625 C-65 160 -65 160 -65 158 C-65.66 158 -66.32 158 -67 158 C-79.58951482 141.80884563 -85.18298319 122.24804884 -85.24023438 102.07177734 C-85.24984399 100.03309787 -85.2808733 97.99547076 -85.3125 95.95703125 C-85.5222926 70.0744337 -75.24366631 46.58539666 -57.375 28.0625 C-47.83671875 19 -47.83671875 19 -44 19 C-44 18.34 -44 17.68 -44 17 C-34.40364493 10.35121647 -23.69117695 5.72958163 -12.625 2.1875 C-11.94663086 1.96819824 -11.26826172 1.74889648 -10.56933594 1.52294922 C-3.45115149 -0.66549508 -3.45115149 -0.66549508 0 0 Z " fill="#E72828" transform="translate(439,1211)"/>
<path d="M0 0 C2.90834885 -0.26660183 5.60138268 -0.34779124 8.5078125 -0.29296875 C9.34843231 -0.28872391 10.18905212 -0.28447906 11.05514526 -0.28010559 C13.74541993 -0.26328532 16.43495099 -0.22562781 19.125 -0.1875 C20.94660378 -0.17245745 22.76821928 -0.1587683 24.58984375 -0.14648438 C29.06018324 -0.11337094 33.52996546 -0.06156637 38 0 C38.26627197 0.59312988 38.53254395 1.18625977 38.80688477 1.79736328 C43.47727387 12.18337598 48.1890468 22.50887689 53.359375 32.65625 C55.17187433 36.35029625 56.81613219 40.09438276 58.4375 43.875 C60.67604391 49.08648404 63.04520119 54.1968407 65.625 59.25 C69.4689866 66.78320776 73.02191513 74.44597961 76.5625 82.125 C80.37734324 90.39866498 84.25473216 98.61051194 88.39453125 106.7265625 C90.7504542 111.53012317 92.87461721 116.43054196 95.02075195 121.33056641 C97.05902451 125.95866147 99.20505624 130.49356499 101.5 135 C104.15947337 140.22245791 106.58937207 145.50589876 108.9375 150.875 C113.13571915 160.46044085 117.75601767 169.81051313 122.61328125 179.078125 C123.07089844 179.95984375 123.52851562 180.8415625 124 181.75 C124.391875 182.48734375 124.78375 183.2246875 125.1875 183.984375 C126 186 126 186 126 190 C115.11 190 104.22 190 93 190 C88.83950069 181.15893896 84.75902028 172.29592134 80.84179688 163.34423828 C79.24043834 159.7048621 77.57548366 156.12887778 75.76171875 152.58984375 C74 149 74 149 74 147 C37.04 147 0.08 147 -38 147 C-38.66 148.98 -39.32 150.96 -40 153 C-40.76516607 154.72276912 -41.56265722 156.43151782 -42.390625 158.125 C-42.85339844 159.08019531 -43.31617188 160.03539062 -43.79296875 161.01953125 C-44.27378906 162.00308594 -44.75460937 162.98664063 -45.25 164 C-49.43812274 172.5734701 -53.23399267 181.21264957 -57 190 C-67.89 190 -78.78 190 -90 190 C-89.26206799 186.31033996 -88.74057989 184.09912694 -87.1796875 180.8828125 C-86.81286865 180.11880127 -86.4460498 179.35479004 -86.06811523 178.56762695 C-85.67438721 177.76156006 -85.28065918 176.95549316 -84.875 176.125 C-84.05032942 174.41297799 -83.22611554 172.70073591 -82.40234375 170.98828125 C-81.9935498 170.14217285 -81.58475586 169.29606445 -81.16357422 168.42431641 C-79.55342599 165.0695594 -77.99550994 161.69167878 -76.4375 158.3125 C-74.12721379 153.33007552 -71.72309226 148.40350233 -69.25 143.5 C-61.31228734 127.74284544 -53.86495895 111.75077042 -46.4682312 95.734375 C-43.0827069 88.40850845 -39.6271681 81.1380474 -35.95629883 73.95141602 C-32.9656907 68.04611942 -30.23794902 62.02571872 -27.5 56 C-24.17340319 48.68239175 -20.78981367 41.41801807 -17.14208984 34.25512695 C-13.29868243 26.68480868 -9.67541046 19.00781655 -6.03540039 11.33813477 C-5.54160889 10.30229248 -5.04781738 9.2664502 -4.5390625 8.19921875 C-4.09771973 7.26940186 -3.65637695 6.33958496 -3.20166016 5.3815918 C-2 3 -2 3 0 0 Z M18 31 C14.91128516 35.21778287 12.74857086 39.54691126 10.75 44.375 C8.42128682 49.84810536 5.95863179 55.20485813 3.25 60.5 C-0.71202409 68.26533207 -4.31391348 76.18125579 -7.91503906 84.11914062 C-10.94377724 90.7692422 -14.07818634 97.34534377 -17.45117188 103.828125 C-19.69246569 108.18319919 -21.24751969 112.32671916 -23 117 C4.06 117 31.12 117 59 117 C57.66334989 112.99004968 56.42545487 109.58913244 54.6015625 105.859375 C54.1281543 104.88411865 53.65474609 103.9088623 53.16699219 102.90405273 C52.65813477 101.86321533 52.14927734 100.82237793 51.625 99.75 C47.23138093 90.69066769 42.94090167 81.59233665 38.75 72.4375 C35.18521062 64.66076956 31.54911526 56.94050933 27.67285156 49.31420898 C24.61189893 43.28458965 21.78507983 37.16093416 19 31 C18.67 31 18.34 31 18 31 Z " fill="#E72828" transform="translate(1360,1219)"/>
<path d="M0 0 C58.74 0 117.48 0 178 0 C178 9.9 178 19.8 178 30 C153.91 30 129.82 30 105 30 C105 82.47 105 134.94 105 189 C94.77 189 84.54 189 74 189 C74 136.86 74 84.72 74 31 C49.58 31 25.16 31 0 31 C0 20.77 0 10.54 0 0 Z " fill="#E72828" transform="translate(803,1215)"/>
<path d="M0 0 C12.61640711 9.80299228 12.61640711 9.80299228 13.2421875 14.7421875 C11.51355047 15.84718315 9.78425362 16.95114664 8.0546875 18.0546875 C7.09175781 18.66957031 6.12882812 19.28445313 5.13671875 19.91796875 C4.18152344 20.51996094 3.22632813 21.12195312 2.2421875 21.7421875 C0.94861328 22.66064453 0.94861328 22.66064453 -0.37109375 23.59765625 C-2.7578125 24.7421875 -2.7578125 24.7421875 -4.875 24.10546875 C-6.67443528 22.80255814 -8.27483728 21.46090009 -9.8828125 19.9296875 C-19.68376614 11.31160757 -30.29666901 10.1348386 -42.82958984 10.60595703 C-52.27214168 11.27308085 -60.27929235 15.78325537 -66.5703125 22.6796875 C-72.92953378 30.03584134 -74.35981941 38.30406562 -74.7578125 47.7421875 C-73.77467752 57.48208293 -69.58498905 65.30915921 -62.5703125 72.0546875 C-58.20913476 75.55920533 -53.0596419 77.15894595 -47.7578125 78.7421875 C-47.13519531 78.93683594 -46.51257812 79.13148437 -45.87109375 79.33203125 C-35.51102364 81.34276574 -24.40921394 80.19582172 -15.3828125 74.6796875 C-14.5165625 74.0403125 -13.6503125 73.4009375 -12.7578125 72.7421875 C-12.0153125 72.4121875 -11.2728125 72.0821875 -10.5078125 71.7421875 C-8.26089357 70.67284998 -8.26089357 70.67284998 -6.7578125 66.7421875 C-5.4378125 64.1021875 -4.1178125 61.4621875 -2.7578125 58.7421875 C-15.2978125 58.7421875 -27.8378125 58.7421875 -40.7578125 58.7421875 C-40.7578125 52.4721875 -40.7578125 46.2021875 -40.7578125 39.7421875 C-20.2978125 39.7421875 0.1621875 39.7421875 21.2421875 39.7421875 C21.2421875 56.40259787 18.39721098 68.00965228 9.2421875 81.7421875 C8.5821875 81.7421875 7.9221875 81.7421875 7.2421875 81.7421875 C6.98566406 82.34160156 6.72914062 82.94101563 6.46484375 83.55859375 C2.29093246 91.01295927 -8.96839847 96.09449775 -16.8203125 98.5546875 C-35.96313907 102.82501035 -55.90238342 100.44019346 -72.66015625 90.328125 C-73.35238281 89.80476563 -74.04460937 89.28140625 -74.7578125 88.7421875 C-74.7578125 88.0821875 -74.7578125 87.4221875 -74.7578125 86.7421875 C-75.33789062 86.49082031 -75.91796875 86.23945312 -76.515625 85.98046875 C-86.17238723 80.64737881 -90.88445689 68.97815207 -93.8984375 58.9453125 C-94.9834245 54.32225244 -95.14194181 49.78914996 -95.1328125 45.0546875 C-95.13120117 44.1790918 -95.12958984 43.30349609 -95.12792969 42.40136719 C-94.98908706 34.99914971 -93.62105243 28.59600572 -90.7578125 21.7421875 C-90.48066406 21.01128906 -90.20351562 20.28039063 -89.91796875 19.52734375 C-83.63484056 4.90531731 -69.08684561 -3.6844776 -55 -9.37109375 C-36.88117647 -15.21676923 -15.28560564 -10.80630729 0 0 Z " fill="#9C9DA0" transform="translate(1447.7578125,1465.2578125)"/>
<path d="M0 0 C42.24 0 84.48 0 128 0 C128 9.9 128 19.8 128 30 C95.66 30 63.32 30 30 30 C30 57.39 30 84.78 30 113 C20.1 113 10.2 113 0 113 C0 75.71 0 38.42 0 0 Z " fill="#E72828" transform="translate(618,1291)"/>
<path d="M0 0 C0.99 0.99 0.99 0.99 2 2 C1.87481066 6.83230856 -0.86419796 9.51741303 -4.0625 12.8125 C-4.53494141 13.31458984 -5.00738281 13.81667969 -5.49414062 14.33398438 C-6.65408452 15.56422789 -7.82588815 16.78327065 -9 18 C-10.03898438 17.44570312 -11.07796875 16.89140625 -12.1484375 16.3203125 C-23.05162569 10.58196697 -23.05162569 10.58196697 -35 8 C-36.21171875 7.86980469 -37.4234375 7.73960938 -38.671875 7.60546875 C-49.95453186 6.5447647 -62.51214307 5.93926926 -72 13 C-73.14352916 15.28705831 -73.10334439 16.59264762 -73.0625 19.125 C-73.041875 20.40375 -73.02125 21.6825 -73 23 C-64.51824237 26.40043131 -55.88108011 27.10774501 -46.875 28 C-9.21643298 31.78356702 -9.21643298 31.78356702 2 43 C7.70190981 51.12201301 7.68462771 59.40543169 7 69 C5.03712308 77.85659527 -0.36998578 84.76061156 -7.8125 89.8125 C-12.31351133 92.39192572 -16.97768963 93.79162457 -22 95 C-22.78503906 95.20625 -23.57007813 95.4125 -24.37890625 95.625 C-43.99754041 100.04610066 -69.57826589 97.88394476 -86.87890625 87.2265625 C-89.31194751 85.54787028 -91.6664927 83.81351765 -94 82 C-95.33251006 80.99890325 -96.66557813 79.99854697 -98 79 C-96.57025343 75.12835954 -94.78167977 71.70505412 -92.625 68.1875 C-92.03976562 67.21167969 -91.45453125 66.23585938 -90.8515625 65.23046875 C-90.24054687 64.49441406 -89.62953125 63.75835938 -89 63 C-87.68 63 -86.36 63 -85 63 C-84.46375 63.556875 -83.9275 64.11375 -83.375 64.6875 C-73.52928303 74.27411916 -55.79863049 77.46476624 -42.5 77.5 C-33.30552922 77.32653812 -24.23901383 76.15316176 -17 70 C-14.39835471 66.97873451 -13.76168483 64.82998118 -14 60.9375 C-14.54286851 57.83789594 -14.96016925 57.04324482 -17.1875 54.625 C-22.47265034 51.57135758 -27.29166125 50.7267783 -33.34765625 50.4375 C-34.04080429 50.40068115 -34.73395233 50.3638623 -35.44810486 50.32592773 C-37.65258522 50.20937579 -39.85737414 50.10356566 -42.0625 50 C-78.8939446 48.24044444 -78.8939446 48.24044444 -89 38 C-94.21074824 30.04089978 -94.82062621 22.10416639 -93.25 12.875 C-92.30379217 8.52377669 -90.78928779 5.52762868 -88 2 C-87.13375 0.7315625 -87.13375 0.7315625 -86.25 -0.5625 C-66.71031638 -21.73049058 -21.20799774 -15.05638785 0 0 Z " fill="#9C9DA0" transform="translate(678,1067)"/>
<path d="M0 0 C-1.44950405 4.35647645 -3.67747112 7.31757289 -6.625 10.8125 C-7.44226562 11.78832031 -8.25953125 12.76414062 -9.1015625 13.76953125 C-9.72804688 14.50558594 -10.35453125 15.24164062 -11 16 C-11.76183594 15.60167969 -12.52367187 15.20335937 -13.30859375 14.79296875 C-25.78896239 8.38918409 -35.85610045 5.8210377 -49.875 5.8125 C-51.45087891 5.79413086 -51.45087891 5.79413086 -53.05859375 5.77539062 C-60.23567779 5.76191675 -66.57789621 6.03411059 -72.9375 9.6875 C-75.73215514 12.82090122 -76.14901092 14.82769412 -76 19 C-72.24043567 22.92773658 -69.10861943 23.60922399 -63.796875 24.10546875 C-62.36384256 24.25352858 -60.93090274 24.40248709 -59.49804688 24.55224609 C-58.38755981 24.66025543 -58.38755981 24.66025543 -57.25463867 24.77044678 C-51.31983492 25.37469141 -45.40941889 26.21157604 -39.49853516 27.01245117 C-37.99316691 27.21333039 -36.48694978 27.40794283 -34.97998047 27.59643555 C-23.51083555 29.03656853 -11.55066602 30.71323257 -2.875 39.125 C-2.17117188 39.78757812 -1.46734375 40.45015625 -0.7421875 41.1328125 C5.0820845 47.37496948 4.34476249 55.01004271 4.2109375 63.046875 C3.76540705 71.39644566 0.89882649 77.96972333 -5 84 C-5.66 84 -6.32 84 -7 84 C-7 84.66 -7 85.32 -7 86 C-26.70066447 97.33613654 -50.54234747 97.65480833 -72.3203125 92.3984375 C-82.59118332 89.55556924 -92.43074595 84.56925405 -100 77 C-98.51637716 70.73581469 -94.75837844 66.08486495 -91 61 C-87.68065968 61.61634283 -85.63842303 62.81836057 -82.9375 64.8125 C-77.89264746 68.25816726 -72.81445037 70.21032649 -67 72 C-66.10925781 72.30035156 -65.21851563 72.60070313 -64.30078125 72.91015625 C-51.16871486 76.84794464 -35.54235912 76.89663744 -23 71 C-18.89967842 67.94485843 -16.8149418 65.09338622 -16 60 C-16.79726637 56.1465459 -17.41506133 54.09100389 -20.67333984 51.84814453 C-29.88068701 47.73820428 -39.96424753 47.97616668 -49.875 47.5 C-81.36575281 45.98125842 -81.36575281 45.98125842 -91.75 35.125 C-96.88548263 27.99238524 -96.5914126 20.48009353 -96 12 C-94.69829241 4.03591629 -90.34706776 -1.40769785 -84.22265625 -6.46875 C-61.28999894 -22.37131152 -21.01267536 -16.62270328 0 0 Z " fill="#9C9DA0" transform="translate(1746,1470)"/>
<path d="M0 0 C30.69 0 61.38 0 93 0 C92.67 6.6 92.34 13.2 92 20 C67.91 20 43.82 20 19 20 C19 26.6 19 33.2 19 40 C35.83 40 52.66 40 70 40 C70 46.6 70 53.2 70 60 C53.17 60 36.34 60 19 60 C19 68.25 19 76.5 19 85 C44.41 85 69.82 85 96 85 C96 91.6 96 98.2 96 105 C64.32 105 32.64 105 0 105 C0 70.35 0 35.7 0 0 Z " fill="#9C9DA0" transform="translate(1314,1057)"/>
<path d="M0 0 C30.69 0 61.38 0 93 0 C93 6.6 93 13.2 93 20 C68.58 20 44.16 20 19 20 C19 26.93 19 33.86 19 41 C35.83 41 52.66 41 70 41 C70 47.6 70 54.2 70 61 C53.17 61 36.34 61 19 61 C19 68.92 19 76.84 19 85 C44.08 85 69.16 85 95 85 C95 91.6 95 98.2 95 105 C63.65 105 32.3 105 0 105 C0 70.35 0 35.7 0 0 Z " fill="#9C9DA0" transform="translate(1538,1458)"/>
<path d="M0 0 C28 0 28 0 33.0625 5 C34.07661251 7.31835882 35.05330708 9.65330353 36 12 C37.60438186 14.61112104 39.39699927 17.07660508 41.1875 19.5625 C42.12940596 20.92233446 43.06813218 22.2843761 44.00390625 23.6484375 C44.48875488 24.35194336 44.97360352 25.05544922 45.47314453 25.78027344 C48.19918215 29.74335851 50.91112478 33.71608132 53.625 37.6875 C57.92756678 43.98145114 62.25167013 50.25939047 66.59765625 56.5234375 C69.72817635 61.0454513 72.83193249 65.5858317 75.9375 70.125 C76.50597656 70.95580078 77.07445312 71.78660156 77.66015625 72.64257812 C79.7869809 75.75318761 81.90975406 78.8646311 84 82 C84.33 54.94 84.66 27.88 85 0 C91.27 0 97.54 0 104 0 C104 34.32 104 68.64 104 104 C76 104 76 104 70.625 98.75 C69.74282404 96.902881 68.86518241 95.0523928 68.06005859 93.17041016 C65.90461621 88.7572635 62.81410114 84.90100718 59.9375 80.9375 C58.72127406 79.21113485 57.50893334 77.48202502 56.30078125 75.75 C55.73053223 74.93273438 55.1602832 74.11546875 54.57275391 73.2734375 C51.91307897 69.42884063 49.34386977 65.52715523 46.76953125 61.625 C45.00943196 59.01399179 43.17938042 56.47305601 41.3125 53.9375 C33.89492426 43.85077673 26.94395374 33.4159306 20 23 C19.67 49.73 19.34 76.46 19 104 C12.73 104 6.46 104 0 104 C0 69.68 0 35.36 0 0 Z " fill="#9C9DA0" transform="translate(439,1057)"/>
<path d="M0 0 C9.24 0 18.48 0 28 0 C34.27722829 6.27722829 34.27722829 6.27722829 35.3671875 9.25 C36.98618855 13.16140976 39.20712853 16.2633544 41.75 19.625 C47.45663904 27.52632803 52.91236714 35.60145577 58.39941406 43.65576172 C60.85875203 47.25773901 63.33641556 50.84702544 65.8125 54.4375 C69.64951092 60.00553467 73.42772141 65.60726884 77.1484375 71.25390625 C79.36849827 74.54652803 81.69181626 77.76854277 84 81 C84.33 54.27 84.66 27.54 85 0 C90.94 0 96.88 0 103 0 C103 34.32 103 68.64 103 104 C94.09 104 85.18 104 76 104 C66.99054184 93.70347639 66.99054184 93.70347639 63.37255859 86.5234375 C61.61116197 83.28512453 59.45305958 80.51153423 57.11254883 77.67382812 C56 76 56 76 56 73 C55.34 73 54.68 73 54 73 C52.39142958 70.80151907 50.90317399 68.60400356 49.4375 66.3125 C48.53089953 64.92385743 47.62333004 63.53584705 46.71484375 62.1484375 C46.25835449 61.4481543 45.80186523 60.74787109 45.33154297 60.02636719 C41.17388352 53.69916267 36.80798429 47.50724618 32.390625 41.359375 C31.95041016 40.74650635 31.51019531 40.1336377 31.05664062 39.50219727 C30.21936839 38.33937131 29.37973648 37.1782386 28.53710938 36.01928711 C25.47312336 31.77200798 22.79406427 27.47050282 20 23 C19.67 49.73 19.34 76.46 19 104 C12.73 104 6.46 104 0 104 C0 69.68 0 35.36 0 0 Z " fill="#9C9DA0" transform="translate(856,1458)"/>
<path d="M0 0 C30.36 0 60.72 0 92 0 C92 6.6 92 13.2 92 20 C67.58 20 43.16 20 18 20 C18 26.93 18 33.86 18 41 C35.16 41 52.32 41 70 41 C70 47.6 70 54.2 70 61 C52.84 61 35.68 61 18 61 C18 68.92 18 76.84 18 85 C43.41 85 68.82 85 95 85 C95 91.6 95 98.2 95 105 C63.65 105 32.3 105 0 105 C0 70.35 0 35.7 0 0 Z " fill="#9C9DA0" transform="translate(482,1458)"/>
<path d="M0 0 C2.70335428 2.14893755 4.89931 4.41242883 6.98828125 7.15625 C8.32581508 8.94316669 8.32581508 8.94316669 10.2734375 10.6953125 C18.31948695 19.15913759 21.34048662 32.18119991 21.7421875 43.51953125 C21.3864496 56.93381448 18.03623905 68.78191419 10.3046875 79.83203125 C9.70527344 80.73308594 9.70527344 80.73308594 9.09375 81.65234375 C2.12905088 91.08679433 -10.27102436 96.7308856 -21.4453125 99.08203125 C-22.23389648 99.24968994 -23.02248047 99.41734863 -23.83496094 99.59008789 C-37.68041573 102.3702032 -51.79441668 100.81782825 -64.6953125 94.83203125 C-65.38625 94.51878906 -66.0771875 94.20554687 -66.7890625 93.8828125 C-77.25595967 88.63093628 -85.69991263 80.41713902 -90.6953125 69.83203125 C-91.31212891 68.63513672 -91.31212891 68.63513672 -91.94140625 67.4140625 C-97.21100337 55.06971216 -96.90047057 37.07183826 -92.6328125 24.39453125 C-88.49695133 14.10701103 -82.38947028 6.62291456 -73.6953125 -0.16796875 C-73.09332031 -0.63976563 -72.49132813 -1.1115625 -71.87109375 -1.59765625 C-51.19232906 -16.04139211 -20.20586513 -13.76037403 0 0 Z M-67.0703125 20.20703125 C-74.81474499 30.31417196 -76.71039343 40.20858888 -75.6953125 52.83203125 C-74.05842848 61.05789147 -70.12561269 67.4577641 -63.6953125 72.83203125 C-52.57463757 79.88269046 -40.30420514 82.96734073 -27.28515625 80.07421875 C-15.69661084 76.69478071 -7.93666274 72.00971216 -1.30078125 61.65625 C2.96179604 52.93528798 2.95426018 41.48415199 0.26953125 32.28515625 C-4.52558542 21.75994194 -12.9864089 14.88893185 -23.6953125 10.83203125 C-37.86383306 6.78085247 -56.68406872 8.65524889 -67.0703125 20.20703125 Z " fill="#9C9DA0" transform="translate(1599.6953125,1064.16796875)"/>
<path d="M0 0 C11.25833351 9.09488509 19.31662355 23.32268872 21.09375 37.69140625 C22.30025811 53.46741377 19.1343914 68.94212856 8.90625 81.34375 C-2.74844663 93.76421997 -17.61966441 99.88187157 -34.5546875 100.7265625 C-51.156446 100.55241818 -67.44546255 96.08412621 -79.90625 84.69140625 C-81.65944778 82.71905875 -83.29455465 80.77004138 -84.90625 78.69140625 C-85.33035156 78.17835937 -85.75445313 77.6653125 -86.19140625 77.13671875 C-96.04902288 64.53585101 -96.07303754 47.9250471 -94.90625 32.69140625 C-93.35935914 22.64486576 -88.78416485 14.98380938 -81.90625 7.69140625 C-81.04966797 6.64919922 -81.04966797 6.64919922 -80.17578125 5.5859375 C-60.7242316 -16.61373395 -22.85208499 -16.05278505 0 0 Z M-69.3671875 23.5703125 C-75.84363076 32.49596908 -76.55390718 40.825158 -75.90625 51.69140625 C-74.42690205 60.04094639 -69.74998684 67.70227542 -63.15625 73.00390625 C-52.90580422 80.08674786 -41.13069972 81.96472445 -28.90625 80.69140625 C-17.49651472 78.33491719 -8.61898141 72.76050337 -2.1171875 63.0078125 C2.21840818 54.27606812 3.20178036 43.03584619 0.49755859 33.61425781 C-3.64608638 22.47838378 -10.11080243 16.78852014 -20.4765625 11.671875 C-25.94801356 9.46394217 -31.335626 9.47784208 -37.15625 9.44140625 C-37.96449219 9.42078125 -38.77273438 9.40015625 -39.60546875 9.37890625 C-51.72481241 9.30134245 -61.67348144 14.2781424 -69.3671875 23.5703125 Z " fill="#9C9DA0" transform="translate(1077.90625,1465.30859375)"/>
<path d="M0 0 C0.60585937 0.52335937 1.21171875 1.04671875 1.8359375 1.5859375 C1.8359375 2.2459375 1.8359375 2.9059375 1.8359375 3.5859375 C2.42503906 3.82441406 3.01414062 4.06289062 3.62109375 4.30859375 C11.44724204 8.82208668 16.02835581 20.73954047 18.5859375 29.01171875 C22.23599006 44.49909454 19.86218194 60.8341325 11.9140625 74.54296875 C2.76708694 87.93675439 -10.12962056 95.10605307 -25.7265625 98.3359375 C-40.55207646 101.10332076 -57.98454827 99.16753101 -71.05078125 91.12109375 C-82.14863676 83.05925047 -92.34622361 72.50466121 -95.4140625 58.7734375 C-97.82708187 43.1648978 -97.58407958 25.88616012 -88.1640625 12.5859375 C-66.14882536 -15.06991489 -29.09134411 -20.49820862 0 0 Z M-71.3984375 23.08203125 C-77.29600373 31.44561522 -78.28148735 40.57472306 -77.1640625 50.5859375 C-75.07236457 59.77530705 -70.70263646 67.27880702 -63.0390625 72.8359375 C-51.64146789 79.77690194 -39.28529927 81.61184168 -26.34765625 78.73828125 C-18.66719277 76.29412081 -12.38561142 72.84350803 -7.1640625 66.5859375 C-7.1640625 65.9259375 -7.1640625 65.2659375 -7.1640625 64.5859375 C-6.5040625 64.5859375 -5.8440625 64.5859375 -5.1640625 64.5859375 C0.01978088 53.9695793 2.46539385 44.47317994 -0.6640625 32.8359375 C-4.43764109 22.21875028 -10.99932755 15.45907072 -21.1640625 10.5859375 C-27.06812847 8.74475269 -32.43967295 8.24857112 -38.6015625 8.2734375 C-39.79362305 8.24926758 -39.79362305 8.24926758 -41.00976562 8.22460938 C-53.4374766 8.21449732 -63.49227282 13.63509826 -71.3984375 23.08203125 Z " fill="#9C9DA0" transform="translate(1316.1640625,1466.4140625)"/>
<path d="M0 0 C6.27 0 12.54 0 19 0 C19 13.2 19 26.4 19 40 C40.78 40 62.56 40 85 40 C85 26.8 85 13.6 85 0 C90.94 0 96.88 0 103 0 C103 34.32 103 68.64 103 104 C97.06 104 91.12 104 85 104 C85 89.48 85 74.96 85 60 C63.22 60 41.44 60 19 60 C19 74.52 19 89.04 19 104 C12.73 104 6.46 104 0 104 C0 69.68 0 35.36 0 0 Z " fill="#9C9DA0" transform="translate(725,1458)"/>
<path d="M0 0 C1.22203967 1.15251373 2.43576109 2.31391705 3.640625 3.484375 C4.5080835 4.31678711 4.5080835 4.31678711 5.39306641 5.16601562 C6.9765625 6.78125 6.9765625 6.78125 9.265625 9.734375 C9.08154297 11.81030273 9.08154297 11.81030273 8.265625 13.734375 C5.5 15.47265625 5.5 15.47265625 2.015625 17.046875 C0.87609375 17.57925781 -0.2634375 18.11164063 -1.4375 18.66015625 C-4.87064266 19.77877501 -6.38233183 19.95329979 -9.734375 18.734375 C-12.234375 16.421875 -12.234375 16.421875 -14.734375 13.734375 C-22.81132582 6.33050341 -31.96122177 4.55561625 -42.546875 4.546875 C-43.70026367 4.52850586 -43.70026367 4.52850586 -44.87695312 4.50976562 C-51.97215518 4.49180309 -58.30505796 5.56174298 -64.546875 9.171875 C-65.63935547 9.78869141 -65.63935547 9.78869141 -66.75390625 10.41796875 C-68.77970464 11.66721926 -68.77970464 11.66721926 -70.37109375 13.39453125 C-71.734375 14.734375 -71.734375 14.734375 -73.734375 14.734375 C-74.0025 15.476875 -74.270625 16.219375 -74.546875 16.984375 C-75.734375 19.734375 -75.734375 19.734375 -77.203125 21.609375 C-81.1930451 27.14640697 -82.74504389 35.04150103 -81.734375 41.734375 C-79.55423597 51.72081832 -77.19425803 60.7694964 -68.671875 66.984375 C-57.69207104 73.58307492 -45.33814636 75.91941026 -32.73681641 73.32275391 C-22.87024814 70.72127125 -14.66323839 66.13359813 -8.734375 57.734375 C-4.49790775 58.31418347 -1.58706303 59.77328674 2.015625 62.046875 C2.97984375 62.64113281 3.9440625 63.23539063 4.9375 63.84765625 C7.265625 65.734375 7.265625 65.734375 8.23828125 67.76171875 C8.265625 69.734375 8.265625 69.734375 5.953125 72.984375 C4.6228125 74.345625 4.6228125 74.345625 3.265625 75.734375 C2.605625 75.734375 1.945625 75.734375 1.265625 75.734375 C0.770625 77.219375 0.770625 77.219375 0.265625 78.734375 C-1.83295518 80.33934547 -3.88170428 81.76935378 -6.109375 83.171875 C-6.74061279 83.57220947 -7.37185059 83.97254395 -8.0222168 84.38500977 C-23.14230132 93.7089029 -41.63282843 96.27902758 -59.046875 93.046875 C-66.95576436 91.10206614 -73.83286015 88.03885411 -80.734375 83.734375 C-80.734375 83.074375 -80.734375 82.414375 -80.734375 81.734375 C-81.78625 81.4559375 -81.78625 81.4559375 -82.859375 81.171875 C-91.4525194 76.8753028 -97.25387405 65.43442489 -100.2109375 56.6328125 C-104.49022702 41.11240424 -102.27960509 24.0444271 -94.71484375 10.0703125 C-87.29073515 -2.43499074 -75.11378841 -10.96303229 -61.234375 -14.953125 C-39.14781456 -20.46723218 -17.11661932 -15.35019834 0 0 Z " fill="#9C9DA0" transform="translate(693.734375,1471.265625)"/>
<path d="M0 0 C6.27 0 12.54 0 19 0 C19.01981934 2.07861328 19.03963867 4.15722656 19.06005859 6.29882812 C19.1271456 13.18802583 19.2047819 20.07707608 19.28752708 26.9661026 C19.33734511 31.14045426 19.38367571 35.31478238 19.421875 39.48925781 C19.45891181 43.5223791 19.50532013 47.5552962 19.55806351 51.58824158 C19.57651019 53.12227271 19.59165354 54.65634745 19.60334396 56.19044495 C19.66211043 67.2468277 19.66211043 67.2468277 22 78 C22.66 78 23.32 78 24 78 C24.43957031 78.61488281 24.87914062 79.22976563 25.33203125 79.86328125 C28.87199094 84.39807738 35.25368535 85.64481736 40.6875 86.75 C42.12273505 86.86597859 43.5612034 86.94329866 45 87 C46.68802734 87.07734375 46.68802734 87.07734375 48.41015625 87.15625 C59.88528992 87.43641603 69.4806445 86.22795142 79.16015625 79.79296875 C82.48190365 76.55585186 83.87022316 73.12450085 84.39872742 68.54507446 C84.40983047 67.27932587 84.42093353 66.01357727 84.43237305 64.70947266 C84.4425647 64.00633942 84.45275635 63.30320618 84.46325684 62.57876587 C84.49325195 60.27378228 84.50263168 57.96921516 84.51171875 55.6640625 C84.52857552 54.05836623 84.5467271 52.45268307 84.56611633 50.84701538 C84.61351441 46.63523457 84.64338946 42.42350695 84.66955566 38.21154785 C84.69941282 33.90785215 84.74592538 29.60433954 84.79101562 25.30078125 C84.87693285 16.86726248 84.94278873 8.43376241 85 0 C91.27 0 97.54 0 104 0 C104.06799731 9.4756862 104.12294328 18.95120819 104.15543652 28.42708397 C104.17103804 32.82794698 104.19217452 37.22863322 104.22631836 41.62939453 C104.25910985 45.88286685 104.2768944 50.13617001 104.28463173 54.38975906 C104.29013995 56.00593348 104.30089542 57.62209949 104.31719017 59.23820114 C104.44971924 72.93732559 103.19128971 84.35691253 93.37109375 94.71875 C80.24020318 106.66146254 62.82244086 108.53233282 45.72949219 107.91845703 C30.91558874 107.03583031 18.0289599 102.75911601 7.75 91.6875 C1.92638741 84.54683061 -0.16083113 76.69951032 -0.11352539 67.66113281 C-0.11367142 66.92903091 -0.11381744 66.19692902 -0.1139679 65.44264221 C-0.11327276 63.02943938 -0.10549908 60.6163143 -0.09765625 58.203125 C-0.09579065 56.52732383 -0.09436742 54.85152212 -0.09336853 53.17572021 C-0.08955452 48.76986174 -0.07973376 44.36403634 -0.06866455 39.95819092 C-0.05842643 35.46041308 -0.05386576 30.96262989 -0.04882812 26.46484375 C-0.03811049 17.64321231 -0.02052272 8.82161408 0 0 Z " fill="#9C9DA0" transform="translate(1039,1057)"/>
<path d="M0 0 C56.1 0 112.2 0 170 0 C170 9.24 170 18.48 170 28 C113.9 28 57.8 28 0 28 C0 18.76 0 9.52 0 0 Z " fill="#E82929" transform="translate(1752,1291)"/>
<path d="M0 0 C30.36 0 60.72 0 92 0 C92 6.6 92 13.2 92 20 C67.91 20 43.82 20 19 20 C19 26.93 19 33.86 19 41 C35.83 41 52.66 41 70 41 C70 47.27 70 53.54 70 60 C53.17 60 36.34 60 19 60 C19 74.85 19 89.7 19 105 C12.73 105 6.46 105 0 105 C0 70.35 0 35.7 0 0 Z " fill="#9C9DA0" transform="translate(1662,1057)"/>
<path d="M0 0 C49.17 0 98.34 0 149 0 C149 9.57 149 19.14 149 29 C99.83 29 50.66 29 0 29 C0 19.43 0 9.86 0 0 Z " fill="#E72929" transform="translate(618,1215)"/>
<path d="M0 0 C44.55 0 89.1 0 135 0 C135 9.57 135 19.14 135 29 C90.45 29 45.9 29 0 29 C0 19.43 0 9.86 0 0 Z " fill="#E72828" transform="translate(1752,1211)"/>
<path d="M0 0 C45.54 0 91.08 0 138 0 C138 9.24 138 18.48 138 28 C92.46 28 46.92 28 0 28 C0 18.76 0 9.52 0 0 Z " fill="#E72828" transform="translate(1752,1375)"/>
<path d="M0 0 C33.66 0 67.32 0 102 0 C102 6.6 102 13.2 102 20 C88.47 20 74.94 20 61 20 C61 47.72 61 75.44 61 104 C54.73 104 48.46 104 42 104 C42 76.28 42 48.56 42 20 C28.14 20 14.28 20 0 20 C0 13.4 0 6.8 0 0 Z " fill="#9D9EA0" transform="translate(1177,1057)"/>
<path d="M0 0 C33.66 0 67.32 0 102 0 C102 6.6 102 13.2 102 20 C88.47 20 74.94 20 61 20 C61 47.72 61 75.44 61 104 C54.73 104 48.46 104 42 104 C42 76.28 42 48.56 42 20 C28.14 20 14.28 20 0 20 C0 13.4 0 6.8 0 0 Z " fill="#9C9DA0" transform="translate(903,1057)"/>
<path d="M0 0 C33.66 0 67.32 0 102 0 C102 6.27 102 12.54 102 19 C88.47 19 74.94 19 61 19 C61 47.05 61 75.1 61 104 C54.73 104 48.46 104 42 104 C42 76.28 42 48.56 42 20 C28.14 20 14.28 20 0 20 C0 13.4 0 6.8 0 0 Z " fill="#9C9DA0" transform="translate(361,1459)"/>
<path d="M0 0 C33.66 0 67.32 0 102 0 C102 6.6 102 13.2 102 20 C88.14 20 74.28 20 60 20 C60 47.72 60 75.44 60 104 C54.06 104 48.12 104 42 104 C42 76.28 42 48.56 42 20 C28.14 20 14.28 20 0 20 C0 13.4 0 6.8 0 0 Z " fill="#9C9DA0" transform="translate(712,1057)"/>
<path d="M0 0 C1.66175087 0.3229471 3.32452003 0.64069999 4.98828125 0.953125 C8.23694207 1.56713223 11.47912107 2.20626009 14.71972656 2.86132812 C21.2293147 4.14513813 27.78744226 4.97557537 34.375 5.75 C33.17118552 8.24361571 31.92071278 10.43143083 30.375 12.75 C29.715 12.75 29.055 12.75 28.375 12.75 C27.99601562 13.84828125 27.99601562 13.84828125 27.609375 14.96875 C26.28491496 17.95297643 24.78650465 19.8122128 22.625 22.25 C16.72532799 29.26660021 11.82474505 36.90859404 6.8046875 44.56640625 C3.43377414 49.70289655 -0.07400426 54.73678999 -3.625 59.75 C-15.85991498 58.72601 -27.91007394 56.77482505 -40 54.6875 C-40.78815094 54.55180603 -41.57630188 54.41611206 -42.38833618 54.27630615 C-44.6630096 53.88347813 -46.93711632 53.48757297 -49.2109375 53.08984375 C-49.8988588 52.97008682 -50.58678009 52.8503299 -51.29554749 52.72694397 C-54.43688015 52.1716359 -57.54476055 51.58441504 -60.625 50.75 C-60.02106051 47.62225634 -59.04119981 45.65023967 -57.10546875 43.1328125 C-56.58355957 42.45017334 -56.06165039 41.76753418 -55.52392578 41.06420898 C-54.95915527 40.34177002 -54.39438477 39.61933105 -53.8125 38.875 C-53.23226074 38.12484619 -52.65202148 37.37469238 -52.05419922 36.60180664 C-46.47587301 29.44772054 -40.60964469 22.56475039 -34.625 15.75 C-33.96886719 14.99332031 -33.31273437 14.23664063 -32.63671875 13.45703125 C-31.57523706 12.23449716 -30.49752168 11.02565709 -29.39648438 9.83862305 C-27.53181664 7.7435148 -27.53181664 7.7435148 -25.98754883 5.1171875 C-18.78844502 -5.24288091 -10.86373177 -2.36067991 0 0 Z " fill="#E72828" transform="translate(1102.625,484.25)"/>
<path d="M0 0 C6.27 0 12.54 0 19 0 C19 28.05 19 56.1 19 85 C40.78 85 62.56 85 85 85 C85 91.27 85 97.54 85 104 C56.95 104 28.9 104 0 104 C0 69.68 0 35.36 0 0 Z " fill="#9C9DA1" transform="translate(1122,1458)"/>
<path d="M0 0 C6.27 0 12.54 0 19 0 C19 34.32 19 68.64 19 104 C12.73 104 6.46 104 0 104 C0 69.68 0 35.36 0 0 Z " fill="#9C9DA0" transform="translate(1492,1459)"/>
<path d="M0 0 C6.27 0 12.54 0 19 0 C19 34.32 19 68.64 19 104 C12.73 104 6.46 104 0 104 C0 69.68 0 35.36 0 0 Z " fill="#9D9DA0" transform="translate(374,1057)"/>
<path d="M0 0 C5.94 0 11.88 0 18 0 C18 34.32 18 68.64 18 104 C12.06 104 6.12 104 0 104 C0 69.68 0 35.36 0 0 Z " fill="#9C9EA0" transform="translate(850,1057)"/>
</svg>
